<?xml version="1.0" encoding="iso-8859-1"?>
<!-- Generator: Adobe Illustrator 19.0.0, SVG Export Plug-In . SVG Version: 6.00 Build 0)  -->
<svg xmlns="http://www.w3.org/2000/svg" xmlns:xlink="http://www.w3.org/1999/xlink" version="1.1" id="Capa_1" x="0px" y="0px" viewBox="0 0 512 512" style="enable-background:new 0 0 512 512;" xml:space="preserve" width="512px" height="512px">
<g>
	<g>
		<g>
			<path d="M504,188.001H296v-40h48c4.418,0,8-3.582,8-8v-112c0-4.418-3.582-8-8-8H168c-4.418,0-8,3.582-8,8v112     c0,4.418,3.582,8,8,8h48v40h-88v-16c0-4.418-3.582-8-8-8H72c-4.418,0-8,3.582-8,8v16H8c-4.418,0-8,3.582-8,8v288     c0,4.418,3.582,8,8,8h496c4.418,0,8-3.582,8-8v-288C512,191.583,508.418,188.001,504,188.001z M176,132.001v-96h160v96H176z      M280,148.001v40h-48v-40H280z M80,180.001h32v8H80V180.001z M496,476.001H16v-192h162.184     c-31.049,42.977-21.38,102.986,21.596,134.036c42.977,31.049,102.987,21.38,134.036-21.596c24.245-33.559,24.245-78.881,0-112.44     H496V476.001z M256,260.001c44.183,0,80,35.817,80,80c0,44.183-35.817,80-80,80s-80-35.817-80-80     C176.049,295.839,211.837,260.05,256,260.001z M496,268.001H320c-0.208,0-0.384,0.104-0.584,0.12     c-36.161-32.161-90.671-32.161-126.832,0c-0.2,0-0.376-0.12-0.584-0.12H16v-64h480V268.001z" fill="#FFFFFF"/>
			<path d="M256,404.001c35.346,0,64-28.654,64-64c0-35.346-28.654-64-64-64c-35.346,0-64,28.654-64,64     C192.04,375.331,220.67,403.962,256,404.001z M256,292.001c26.51,0,48,21.49,48,48c0,26.51-21.49,48-48,48     c-26.51,0-48-21.49-48-48C208.026,313.503,229.501,292.028,256,292.001z" fill="#FFFFFF"/>
			<path d="M256,380.001c4.418,0,8-3.582,8-8s-3.582-8-8-8c-13.255,0-24-10.745-24-24c0-4.418-3.582-8-8-8s-8,3.582-8,8     C216.026,362.082,233.92,379.975,256,380.001z" fill="#FFFFFF"/>
			<path d="M40,260.001h72c4.418,0,8-3.582,8-8v-32c0-4.418-3.582-8-8-8H40c-4.418,0-8,3.582-8,8v32     C32,256.42,35.582,260.001,40,260.001z M48,228.001h56v16H48V228.001z" fill="#FFFFFF"/>
			<path d="M384,260.001c13.255,0,24-10.745,24-24s-10.745-24-24-24s-24,10.745-24,24S370.745,260.001,384,260.001z M384,228.001     c4.418,0,8,3.582,8,8s-3.582,8-8,8s-8-3.582-8-8S379.582,228.001,384,228.001z" fill="#FFFFFF"/>
			<path d="M448,260.001c13.255,0,24-10.745,24-24s-10.745-24-24-24s-24,10.745-24,24S434.745,260.001,448,260.001z M448,228.001     c4.418,0,8,3.582,8,8s-3.582,8-8,8s-8-3.582-8-8S443.582,228.001,448,228.001z" fill="#FFFFFF"/>
			<path d="M88,92.001h48c4.418,0,8-3.582,8-8s-3.582-8-8-8H88c-4.418,0-8,3.582-8,8S83.582,92.001,88,92.001z" fill="#FFFFFF"/>
			<path d="M91,34.249l40,32c3.451,2.761,8.487,2.203,11.248-1.248c2.761-3.451,2.203-8.487-1.248-11.248l-40-32     c-3.451-2.761-8.487-2.203-11.248,1.248S87.549,31.488,91,34.249z" fill="#FFFFFF"/>
			<path d="M131,101.753l-40,32c-3.451,2.761-4.009,7.797-1.248,11.248s7.797,4.009,11.248,1.248l40-32     c3.451-2.761,4.009-7.797,1.248-11.248C139.487,99.551,134.451,98.992,131,101.753z" fill="#FFFFFF"/>
			<path d="M368,84.001c0,4.418,3.582,8,8,8h48c4.418,0,8-3.582,8-8s-3.582-8-8-8h-48C371.582,76.001,368,79.583,368,84.001z" fill="#FFFFFF"/>
			<path d="M421,133.753l-40-32c-3.449-2.762-8.483-2.205-11.245,1.244c-0.001,0.001-0.002,0.002-0.003,0.004     c-2.762,3.449-2.205,8.483,1.244,11.245c0.001,0.001,0.002,0.002,0.004,0.003l40,32c3.451,2.761,8.487,2.203,11.248-1.248     C425.009,141.551,424.451,136.515,421,133.753z" fill="#FFFFFF"/>
			<path d="M376,68.001c1.815-0.001,3.575-0.619,4.992-1.752l40-32c3.451-2.761,4.009-7.797,1.248-11.248     c-2.761-3.451-7.797-4.009-11.248-1.248l-40,32c-3.451,2.759-4.011,7.794-1.252,11.244C371.261,66.899,373.565,68.005,376,68.001     z" fill="#FFFFFF"/>
			<path d="M64,444.001H48v-16c0-4.418-3.582-8-8-8s-8,3.582-8,8v24c0,4.418,3.582,8,8,8h24c4.418,0,8-3.582,8-8     S68.418,444.001,64,444.001z" fill="#FFFFFF"/>
			<path d="M112,444.001H96c-4.418,0-8,3.582-8,8s3.582,8,8,8h16c4.418,0,8-3.582,8-8S116.418,444.001,112,444.001z" fill="#FFFFFF"/>
		</g>
	</g>
</g>
<g>
</g>
<g>
</g>
<g>
</g>
<g>
</g>
<g>
</g>
<g>
</g>
<g>
</g>
<g>
</g>
<g>
</g>
<g>
</g>
<g>
</g>
<g>
</g>
<g>
</g>
<g>
</g>
<g>
</g>
</svg>
