<?xml version="1.0" encoding="iso-8859-1"?>
<!-- Generator: Adobe Illustrator 19.0.0, SVG Export Plug-In . SVG Version: 6.00 Build 0)  -->
<svg xmlns="http://www.w3.org/2000/svg" xmlns:xlink="http://www.w3.org/1999/xlink" version="1.1" id="Capa_1" x="0px" y="0px" viewBox="0 0 512 512" style="enable-background:new 0 0 512 512;" xml:space="preserve" width="512px" height="512px">
<g>
	<g>
		<path d="M481.779,132.372h-64.227L285.035,21.649C281.07,9.113,269.331,0,255.501,0c-13.829,0-25.568,9.113-29.533,21.649    L93.45,132.372H30.22c-16.526,0-29.97,13.445-29.97,29.971V482.03c0,16.526,13.444,29.97,29.97,29.97h451.559    c16.526,0,29.971-13.444,29.971-29.97V162.342C511.75,145.816,498.305,132.372,481.779,132.372z M255.501,19.98    c6.06,0,10.99,4.93,10.99,10.989s-4.93,10.989-10.99,10.989c-6.059,0-10.988-4.93-10.988-10.989    C244.512,24.911,249.442,19.98,255.501,19.98z M228.29,45.745c5.255,9.64,15.482,16.194,27.211,16.194    c11.731,0,21.958-6.556,27.212-16.193l103.677,86.625H124.612L228.29,45.745z M491.769,482.03c0,5.509-4.482,9.989-9.99,9.989    H30.22c-5.509,0-9.989-4.482-9.989-9.989V162.342c0-5.509,4.482-9.99,9.989-9.99h451.559c5.509,0,9.99,4.482,9.99,9.99V482.03z" fill="#FFFFFF"/>
	</g>
</g>
<g>
	<g>
		<path d="M466.794,167.338H45.205c-5.518,0-9.99,4.473-9.99,9.99v171.176c-0.654,2.011-0.654,4.183,0,6.194v112.348    c0,5.518,4.473,9.99,9.99,9.99h421.588c5.517,0,9.99-4.473,9.99-9.99V177.328C476.784,171.81,472.311,167.338,466.794,167.338z     M55.195,187.317h401.609v0.001v156.97l-39.909-39.91c-11.686-11.686-30.7-11.684-42.386,0l-55.058,55.059L192.288,232.274    c-11.686-11.685-30.7-11.685-42.386,0l-94.708,94.707V187.317z M456.803,457.055h-225.71    c23.534-11.62,53.445-22.285,85.518-30.235c49.224-12.2,98.609-17.092,140.192-13.972V457.055z M456.803,392.819    c-43.357-3.044-94.362,2.055-144.999,14.607c-49.664,12.31-93.2,30.33-120.045,49.629H55.196V355.239l108.836-108.836    c3.894-3.895,10.233-3.895,14.128,0l134.227,134.226c1.874,1.873,4.415,2.926,7.064,2.926s5.19-1.053,7.064-2.926l62.123-62.123    c1.871-1.872,4.38-2.902,7.063-2.902c2.685,0,5.193,1.03,7.064,2.902l54.038,54.038V392.819z" fill="#FFFFFF"/>
	</g>
</g>
<g>
	<g>
		<path d="M317.804,220.825c-17.077,0-30.97,13.892-30.97,30.97c0,17.076,13.892,30.97,30.97,30.97s30.97-13.893,30.97-30.97    C348.774,234.719,334.881,220.825,317.804,220.825z M317.804,262.785c-6.059,0-10.989-4.93-10.989-10.989    c0-6.06,4.929-10.989,10.989-10.989c6.059,0,10.989,4.93,10.989,10.989C328.793,257.855,323.863,262.785,317.804,262.785z" fill="#FFFFFF"/>
	</g>
</g>
<g>
	<g>
		<path d="M125.128,419.091h-40.96c-5.518,0-9.99,4.473-9.99,9.99c0,5.518,4.473,9.99,9.99,9.99h40.96c5.518,0,9.99-4.473,9.99-9.99    C135.119,423.564,130.646,419.091,125.128,419.091z" fill="#FFFFFF"/>
	</g>
</g>
<g>
</g>
<g>
</g>
<g>
</g>
<g>
</g>
<g>
</g>
<g>
</g>
<g>
</g>
<g>
</g>
<g>
</g>
<g>
</g>
<g>
</g>
<g>
</g>
<g>
</g>
<g>
</g>
<g>
</g>
</svg>
